<mxfile host="app.diagrams.net" modified="2024-04-24T07:02:42.759Z" agent="Mozilla/5.0 (Windows NT 10.0; Win64; x64) AppleWebKit/537.36 (KHTML, like Gecko) Chrome/123.0.0.0 Safari/537.36" etag="qeukejW-bQCLxvA18jn-" version="24.2.8" type="github">
  <diagram id="C5RBs43oDa-KdzZeNtuy" name="Page-1">
    <mxGraphModel dx="989" dy="532" grid="1" gridSize="10" guides="1" tooltips="1" connect="1" arrows="1" fold="1" page="1" pageScale="1" pageWidth="827" pageHeight="1169" math="0" shadow="0">
      <root>
        <mxCell id="WIyWlLk6GJQsqaUBKTNV-0" />
        <mxCell id="WIyWlLk6GJQsqaUBKTNV-1" parent="WIyWlLk6GJQsqaUBKTNV-0" />
        <mxCell id="io9VJMqO0ZMELUNDM5LC-0" value="&lt;pre&gt;5CD010113(X4693)&lt;br&gt;卍字形展架，30方管，框寬度620mm，高度1400mm，電鍍&lt;br&gt;屬性:M&amp;nbsp; 製程代號: 1103&lt;/pre&gt;" style="rounded=0;whiteSpace=wrap;html=1;align=center;" vertex="1" parent="WIyWlLk6GJQsqaUBKTNV-1">
          <mxGeometry x="270" y="10" width="316" height="60" as="geometry" />
        </mxCell>
        <mxCell id="io9VJMqO0ZMELUNDM5LC-67" style="edgeStyle=orthogonalEdgeStyle;rounded=0;orthogonalLoop=1;jettySize=auto;html=1;entryX=0.5;entryY=0;entryDx=0;entryDy=0;" edge="1" parent="WIyWlLk6GJQsqaUBKTNV-1" source="io9VJMqO0ZMELUNDM5LC-1" target="io9VJMqO0ZMELUNDM5LC-22">
          <mxGeometry relative="1" as="geometry">
            <Array as="points">
              <mxPoint x="185" y="380" />
              <mxPoint x="100" y="380" />
            </Array>
          </mxGeometry>
        </mxCell>
        <mxCell id="io9VJMqO0ZMELUNDM5LC-68" style="edgeStyle=orthogonalEdgeStyle;rounded=0;orthogonalLoop=1;jettySize=auto;html=1;entryX=0.5;entryY=0;entryDx=0;entryDy=0;" edge="1" parent="WIyWlLk6GJQsqaUBKTNV-1" source="io9VJMqO0ZMELUNDM5LC-1" target="io9VJMqO0ZMELUNDM5LC-25">
          <mxGeometry relative="1" as="geometry">
            <Array as="points">
              <mxPoint x="185" y="380" />
              <mxPoint x="720" y="380" />
            </Array>
          </mxGeometry>
        </mxCell>
        <mxCell id="io9VJMqO0ZMELUNDM5LC-69" style="edgeStyle=orthogonalEdgeStyle;rounded=0;orthogonalLoop=1;jettySize=auto;html=1;entryX=0.5;entryY=0;entryDx=0;entryDy=0;" edge="1" parent="WIyWlLk6GJQsqaUBKTNV-1" source="io9VJMqO0ZMELUNDM5LC-1" target="io9VJMqO0ZMELUNDM5LC-24">
          <mxGeometry relative="1" as="geometry">
            <Array as="points">
              <mxPoint x="185" y="380" />
              <mxPoint x="510" y="380" />
            </Array>
          </mxGeometry>
        </mxCell>
        <mxCell id="io9VJMqO0ZMELUNDM5LC-1" value="5CD010113-1&lt;div&gt;卍字形展架側框，30正方管，厚度1.5mm，寬度630mm，高度1400mm(單面貫穿排孔)，電鍍鉻&lt;br&gt;&lt;/div&gt;" style="rounded=0;whiteSpace=wrap;html=1;" vertex="1" parent="WIyWlLk6GJQsqaUBKTNV-1">
          <mxGeometry x="50" y="130" width="270" height="60" as="geometry" />
        </mxCell>
        <mxCell id="io9VJMqO0ZMELUNDM5LC-74" style="edgeStyle=orthogonalEdgeStyle;rounded=0;orthogonalLoop=1;jettySize=auto;html=1;" edge="1" parent="WIyWlLk6GJQsqaUBKTNV-1" source="io9VJMqO0ZMELUNDM5LC-2" target="io9VJMqO0ZMELUNDM5LC-15">
          <mxGeometry relative="1" as="geometry">
            <Array as="points">
              <mxPoint x="390" y="220" />
              <mxPoint x="285" y="220" />
            </Array>
          </mxGeometry>
        </mxCell>
        <mxCell id="io9VJMqO0ZMELUNDM5LC-76" style="edgeStyle=orthogonalEdgeStyle;rounded=0;orthogonalLoop=1;jettySize=auto;html=1;entryX=0.5;entryY=0;entryDx=0;entryDy=0;" edge="1" parent="WIyWlLk6GJQsqaUBKTNV-1" source="io9VJMqO0ZMELUNDM5LC-2" target="io9VJMqO0ZMELUNDM5LC-14">
          <mxGeometry relative="1" as="geometry">
            <Array as="points">
              <mxPoint x="390" y="220" />
              <mxPoint x="422" y="220" />
            </Array>
          </mxGeometry>
        </mxCell>
        <mxCell id="io9VJMqO0ZMELUNDM5LC-2" value="&lt;p&gt;30410284&lt;br&gt;螺絲包：M8x50mm內六角螺絲(301020002)x8支+板手(30300001)*1&lt;br&gt;屬性:M&amp;nbsp; 製程代號: 1103&lt;/p&gt;" style="rounded=0;whiteSpace=wrap;html=1;" vertex="1" parent="WIyWlLk6GJQsqaUBKTNV-1">
          <mxGeometry x="330" y="130" width="210" height="60" as="geometry" />
        </mxCell>
        <mxCell id="io9VJMqO0ZMELUNDM5LC-19" style="edgeStyle=orthogonalEdgeStyle;rounded=0;orthogonalLoop=1;jettySize=auto;html=1;exitX=0.5;exitY=1;exitDx=0;exitDy=0;entryX=0.5;entryY=0;entryDx=0;entryDy=0;" edge="1" parent="WIyWlLk6GJQsqaUBKTNV-1" source="io9VJMqO0ZMELUNDM5LC-5" target="io9VJMqO0ZMELUNDM5LC-11">
          <mxGeometry relative="1" as="geometry" />
        </mxCell>
        <mxCell id="io9VJMqO0ZMELUNDM5LC-5" value="30420035&lt;div&gt;腳輪包-3x7/8&quot;萬向PU輪，牙:M8xP1.25x19mm-黑灰，剎車輪(30620007)x2顆+活動輪(30620008)x2顆/一包&lt;br&gt;&lt;/div&gt;&lt;div&gt;屬性:M&amp;nbsp; 製程代號: 1103&lt;br&gt;&lt;/div&gt;" style="rounded=0;whiteSpace=wrap;html=1;" vertex="1" parent="WIyWlLk6GJQsqaUBKTNV-1">
          <mxGeometry x="560" y="120" width="260" height="90" as="geometry" />
        </mxCell>
        <mxCell id="io9VJMqO0ZMELUNDM5LC-8" style="edgeStyle=orthogonalEdgeStyle;rounded=0;orthogonalLoop=1;jettySize=auto;html=1;exitX=0.5;exitY=1;exitDx=0;exitDy=0;entryX=0.538;entryY=0.017;entryDx=0;entryDy=0;entryPerimeter=0;" edge="1" parent="WIyWlLk6GJQsqaUBKTNV-1" source="io9VJMqO0ZMELUNDM5LC-0" target="io9VJMqO0ZMELUNDM5LC-2">
          <mxGeometry relative="1" as="geometry" />
        </mxCell>
        <mxCell id="io9VJMqO0ZMELUNDM5LC-10" style="edgeStyle=orthogonalEdgeStyle;rounded=0;orthogonalLoop=1;jettySize=auto;html=1;exitX=0.75;exitY=1;exitDx=0;exitDy=0;entryX=0.485;entryY=-0.011;entryDx=0;entryDy=0;entryPerimeter=0;" edge="1" parent="WIyWlLk6GJQsqaUBKTNV-1" source="io9VJMqO0ZMELUNDM5LC-0" target="io9VJMqO0ZMELUNDM5LC-5">
          <mxGeometry relative="1" as="geometry">
            <Array as="points">
              <mxPoint x="507" y="100" />
              <mxPoint x="686" y="100" />
            </Array>
          </mxGeometry>
        </mxCell>
        <mxCell id="io9VJMqO0ZMELUNDM5LC-11" value="301020002&lt;div&gt;(SPM850)合金剛 半圓頭 內六角螺絲，牙規M8x1.25, L:50mm-鍍鎳&lt;br&gt;&lt;/div&gt;&lt;div&gt;屬性:M&lt;br&gt;&lt;/div&gt;" style="rounded=0;whiteSpace=wrap;html=1;" vertex="1" parent="WIyWlLk6GJQsqaUBKTNV-1">
          <mxGeometry x="520" y="250" width="130" height="90" as="geometry" />
        </mxCell>
        <mxCell id="io9VJMqO0ZMELUNDM5LC-12" value="30300001&lt;div&gt;(SP6M845)M5 鍍鋅中碳鋼 六角扳手(合M8螺絲)&lt;br&gt;&lt;/div&gt;&lt;div&gt;屬性:M&lt;br&gt;&lt;/div&gt;" style="rounded=0;whiteSpace=wrap;html=1;" vertex="1" parent="WIyWlLk6GJQsqaUBKTNV-1">
          <mxGeometry x="680" y="250" width="120" height="90" as="geometry" />
        </mxCell>
        <mxCell id="io9VJMqO0ZMELUNDM5LC-14" value="301020002&amp;nbsp;&lt;div&gt;(SPM850)合金剛 半圓頭 內六角螺絲，牙規M8x1.25, L:50mm-鍍鎳&lt;/div&gt;&lt;div&gt;屬性:M&lt;br&gt;&lt;/div&gt;" style="rounded=0;whiteSpace=wrap;html=1;" vertex="1" parent="WIyWlLk6GJQsqaUBKTNV-1">
          <mxGeometry x="354" y="250" width="136" height="90" as="geometry" />
        </mxCell>
        <mxCell id="io9VJMqO0ZMELUNDM5LC-15" value="30300001 (SP6M845)M5 鍍鋅中碳鋼 六角扳手(合M8螺絲)&lt;div&gt;屬性:M&lt;br&gt;&lt;/div&gt;" style="rounded=0;whiteSpace=wrap;html=1;" vertex="1" parent="WIyWlLk6GJQsqaUBKTNV-1">
          <mxGeometry x="230" y="250" width="110" height="90" as="geometry" />
        </mxCell>
        <mxCell id="io9VJMqO0ZMELUNDM5LC-18" style="edgeStyle=orthogonalEdgeStyle;rounded=0;orthogonalLoop=1;jettySize=auto;html=1;entryX=0.583;entryY=-0.011;entryDx=0;entryDy=0;entryPerimeter=0;" edge="1" parent="WIyWlLk6GJQsqaUBKTNV-1" source="io9VJMqO0ZMELUNDM5LC-5" target="io9VJMqO0ZMELUNDM5LC-12">
          <mxGeometry relative="1" as="geometry" />
        </mxCell>
        <mxCell id="io9VJMqO0ZMELUNDM5LC-21" style="edgeStyle=orthogonalEdgeStyle;rounded=0;orthogonalLoop=1;jettySize=auto;html=1;exitX=0.25;exitY=1;exitDx=0;exitDy=0;entryX=0.494;entryY=-0.068;entryDx=0;entryDy=0;entryPerimeter=0;" edge="1" parent="WIyWlLk6GJQsqaUBKTNV-1" source="io9VJMqO0ZMELUNDM5LC-0" target="io9VJMqO0ZMELUNDM5LC-1">
          <mxGeometry relative="1" as="geometry" />
        </mxCell>
        <mxCell id="io9VJMqO0ZMELUNDM5LC-37" style="edgeStyle=orthogonalEdgeStyle;rounded=0;orthogonalLoop=1;jettySize=auto;html=1;entryX=0.5;entryY=0;entryDx=0;entryDy=0;" edge="1" parent="WIyWlLk6GJQsqaUBKTNV-1" source="io9VJMqO0ZMELUNDM5LC-22" target="io9VJMqO0ZMELUNDM5LC-35">
          <mxGeometry relative="1" as="geometry" />
        </mxCell>
        <mxCell id="io9VJMqO0ZMELUNDM5LC-22" value="22TU11551&amp;nbsp;&lt;div&gt;30x30正方管，厚度1.5mm，長度1340mm 平切：單面貫穿排孔，孔徑8*30，Pitch 50，離上下邊30mm&lt;/div&gt;&lt;div&gt;&lt;br&gt;&lt;/div&gt;&lt;div&gt;/*&lt;span style=&quot;background-color: initial;&quot;&gt;請用18.1尺(5484mm)裁切，一支可切4支→轉焊接&lt;/span&gt;&lt;/div&gt;" style="rounded=0;whiteSpace=wrap;html=1;" vertex="1" parent="WIyWlLk6GJQsqaUBKTNV-1">
          <mxGeometry x="40" y="430" width="120" height="160" as="geometry" />
        </mxCell>
        <mxCell id="io9VJMqO0ZMELUNDM5LC-23" value="22TU11552&amp;nbsp;&lt;div&gt;30x30正方管，厚度1.5mm，長度1400mm&amp;nbsp; 八字斜切45度：側面貫穿排孔，孔徑8*30，Pitch 50，離上下邊60mm&lt;/div&gt;&lt;div&gt;&lt;br&gt;&lt;/div&gt;&lt;div&gt;/*&lt;span style=&quot;background-color: initial;&quot;&gt;請用18.6尺(5636mm)裁切，一支可切4支→轉焊接&lt;/span&gt;&lt;/div&gt;" style="rounded=0;whiteSpace=wrap;html=1;" vertex="1" parent="WIyWlLk6GJQsqaUBKTNV-1">
          <mxGeometry x="180" y="430" width="110" height="180" as="geometry" />
        </mxCell>
        <mxCell id="io9VJMqO0ZMELUNDM5LC-86" style="edgeStyle=orthogonalEdgeStyle;rounded=0;orthogonalLoop=1;jettySize=auto;html=1;" edge="1" parent="WIyWlLk6GJQsqaUBKTNV-1" source="io9VJMqO0ZMELUNDM5LC-24" target="io9VJMqO0ZMELUNDM5LC-79">
          <mxGeometry relative="1" as="geometry">
            <Array as="points">
              <mxPoint x="428" y="640" />
              <mxPoint x="275" y="640" />
            </Array>
          </mxGeometry>
        </mxCell>
        <mxCell id="io9VJMqO0ZMELUNDM5LC-88" style="edgeStyle=orthogonalEdgeStyle;rounded=0;orthogonalLoop=1;jettySize=auto;html=1;entryX=0.5;entryY=0;entryDx=0;entryDy=0;" edge="1" parent="WIyWlLk6GJQsqaUBKTNV-1" source="io9VJMqO0ZMELUNDM5LC-24" target="io9VJMqO0ZMELUNDM5LC-85">
          <mxGeometry relative="1" as="geometry" />
        </mxCell>
        <mxCell id="io9VJMqO0ZMELUNDM5LC-24" value="22TU11553&amp;nbsp;&lt;div&gt;30x30正方管，厚度1.5mm，長度630mm 單邊斜切45度：側面Ø10貫穿孔，中心離平切邊255mm；底部(★短面)Ø8半孔*2+Ø10半孔*1+23x23方形消水孔&lt;/div&gt;&lt;div&gt;&lt;br&gt;&lt;/div&gt;&lt;div&gt;/&lt;span style=&quot;background-color: initial;&quot;&gt;*請用18.8尺(5696mm)裁切，一支可切9支→轉焊接&lt;/span&gt;&lt;/div&gt;" style="rounded=0;whiteSpace=wrap;html=1;" vertex="1" parent="WIyWlLk6GJQsqaUBKTNV-1">
          <mxGeometry x="368" y="430" width="120" height="190" as="geometry" />
        </mxCell>
        <mxCell id="io9VJMqO0ZMELUNDM5LC-25" value="22TU11554&amp;nbsp;&lt;div&gt;30x30正方管，厚度1.5mm，長度630mm&amp;nbsp; 單邊斜切45度：側面Ø10貫穿孔，中心離平切邊255mm；上面(★短面)23x23方形消水孔；底部(★長面)Ø11.5半孔*1+10x25長方孔*1&lt;/div&gt;&lt;div&gt;&lt;br&gt;&lt;/div&gt;&lt;div&gt;/*請用18.8尺(5696mm)裁切，一支可切9支→轉焊接&lt;br&gt;&lt;/div&gt;" style="rounded=0;whiteSpace=wrap;html=1;" vertex="1" parent="WIyWlLk6GJQsqaUBKTNV-1">
          <mxGeometry x="660" y="430" width="120" height="210" as="geometry" />
        </mxCell>
        <mxCell id="io9VJMqO0ZMELUNDM5LC-35" value="12S3030151C0134&amp;nbsp;&lt;div&gt;30x30正方管，厚度1.5mm，長度18.1尺(5484mm)，電鍍管&lt;/div&gt;" style="rounded=0;whiteSpace=wrap;html=1;align=center;" vertex="1" parent="WIyWlLk6GJQsqaUBKTNV-1">
          <mxGeometry x="40" y="964.5" width="120" height="60" as="geometry" />
        </mxCell>
        <mxCell id="io9VJMqO0ZMELUNDM5LC-38" value="12S3030151C0070&amp;nbsp;&lt;div&gt;30x30正方管，厚度1.5mm，長度18.6尺(5636mm)，電鍍管&lt;/div&gt;" style="rounded=0;whiteSpace=wrap;html=1;" vertex="1" parent="WIyWlLk6GJQsqaUBKTNV-1">
          <mxGeometry x="167.5" y="961.5" width="122.5" height="65" as="geometry" />
        </mxCell>
        <mxCell id="io9VJMqO0ZMELUNDM5LC-60" value="0" style="ellipse;whiteSpace=wrap;html=1;aspect=fixed;" vertex="1" parent="WIyWlLk6GJQsqaUBKTNV-1">
          <mxGeometry x="240" y="30" width="20" height="20" as="geometry" />
        </mxCell>
        <mxCell id="io9VJMqO0ZMELUNDM5LC-61" value="1" style="ellipse;whiteSpace=wrap;html=1;aspect=fixed;" vertex="1" parent="WIyWlLk6GJQsqaUBKTNV-1">
          <mxGeometry x="20" y="140" width="20" height="20" as="geometry" />
        </mxCell>
        <mxCell id="io9VJMqO0ZMELUNDM5LC-62" value="2" style="ellipse;whiteSpace=wrap;html=1;aspect=fixed;" vertex="1" parent="WIyWlLk6GJQsqaUBKTNV-1">
          <mxGeometry x="200" y="280" width="20" height="20" as="geometry" />
        </mxCell>
        <mxCell id="io9VJMqO0ZMELUNDM5LC-63" value="2" style="ellipse;whiteSpace=wrap;html=1;aspect=fixed;" vertex="1" parent="WIyWlLk6GJQsqaUBKTNV-1">
          <mxGeometry x="10" y="470" width="20" height="20" as="geometry" />
        </mxCell>
        <mxCell id="io9VJMqO0ZMELUNDM5LC-77" value="3" style="ellipse;whiteSpace=wrap;html=1;aspect=fixed;" vertex="1" parent="WIyWlLk6GJQsqaUBKTNV-1">
          <mxGeometry x="20" y="980" width="20" height="20" as="geometry" />
        </mxCell>
        <mxCell id="io9VJMqO0ZMELUNDM5LC-79" value="&lt;div&gt;22TU11553&amp;nbsp;&lt;/div&gt;&lt;div&gt;30x30正方管，厚度1.5mm，長度630mm&amp;nbsp; 單邊斜切45度：側面Ø10貫穿孔，中心離平切邊255mm；底部(★短面)Ø8半孔*2+Ø10半孔*1+23x23方形消水孔，平切邊起算Pitch 15,85,155,275,100/*請用18.8尺(5696mm)裁切，一支可切9支→轉焊接 屬性:M&amp;nbsp; 製程代號:1129 雷射切管+割&lt;/div&gt;" style="rounded=0;whiteSpace=wrap;html=1;" vertex="1" parent="WIyWlLk6GJQsqaUBKTNV-1">
          <mxGeometry x="220" y="660" width="110" height="260" as="geometry" />
        </mxCell>
        <mxCell id="io9VJMqO0ZMELUNDM5LC-81" value="22TU11553&amp;nbsp;&lt;div&gt;(X4693)卍字型展架側框上桿：30x30正方管，厚度1.5mm，長度630mm&amp;nbsp; 單邊斜切45度，側面Ø10貫穿孔+底部(★短面)Ø8半孔*2+Ø10半孔*1+23x23方形消水孔：平切那邊沖壓內塞(M8)*1→轉焊接 屬性:M&amp;nbsp; 製程代號:1104 沖床(沖床件)&lt;/div&gt;" style="rounded=0;whiteSpace=wrap;html=1;" vertex="1" parent="WIyWlLk6GJQsqaUBKTNV-1">
          <mxGeometry x="340" y="660" width="100" height="230" as="geometry" />
        </mxCell>
        <mxCell id="io9VJMqO0ZMELUNDM5LC-82" style="edgeStyle=orthogonalEdgeStyle;rounded=0;orthogonalLoop=1;jettySize=auto;html=1;entryX=0.464;entryY=0.016;entryDx=0;entryDy=0;entryPerimeter=0;" edge="1" parent="WIyWlLk6GJQsqaUBKTNV-1" source="io9VJMqO0ZMELUNDM5LC-1" target="io9VJMqO0ZMELUNDM5LC-23">
          <mxGeometry relative="1" as="geometry">
            <Array as="points">
              <mxPoint x="185" y="380" />
              <mxPoint x="231" y="380" />
            </Array>
          </mxGeometry>
        </mxCell>
        <mxCell id="io9VJMqO0ZMELUNDM5LC-83" style="edgeStyle=orthogonalEdgeStyle;rounded=0;orthogonalLoop=1;jettySize=auto;html=1;exitX=0.75;exitY=0;exitDx=0;exitDy=0;entryX=0.914;entryY=0.007;entryDx=0;entryDy=0;entryPerimeter=0;" edge="1" parent="WIyWlLk6GJQsqaUBKTNV-1" source="io9VJMqO0ZMELUNDM5LC-25" target="io9VJMqO0ZMELUNDM5LC-25">
          <mxGeometry relative="1" as="geometry" />
        </mxCell>
        <mxCell id="io9VJMqO0ZMELUNDM5LC-85" value="22TU11553&amp;nbsp;&lt;div&gt;(X4693)卍字型展架側框上桿：30x30正方管，厚度1.5mm，長度630mm&amp;nbsp; 單邊斜切45度，側面Ø10貫穿孔+底部(★短面)Ø8半孔*2+Ø10半孔*1+23x23方形消水孔：平切那邊點焊內塞(M8)*1→轉主體焊接 屬性:M&amp;nbsp; 製程代號:1117 焊接(廠內)&lt;/div&gt;" style="rounded=0;whiteSpace=wrap;html=1;" vertex="1" parent="WIyWlLk6GJQsqaUBKTNV-1">
          <mxGeometry x="450" y="660" width="100" height="230" as="geometry" />
        </mxCell>
        <mxCell id="io9VJMqO0ZMELUNDM5LC-87" style="edgeStyle=orthogonalEdgeStyle;rounded=0;orthogonalLoop=1;jettySize=auto;html=1;entryX=0.689;entryY=0.002;entryDx=0;entryDy=0;entryPerimeter=0;" edge="1" parent="WIyWlLk6GJQsqaUBKTNV-1" source="io9VJMqO0ZMELUNDM5LC-24" target="io9VJMqO0ZMELUNDM5LC-81">
          <mxGeometry relative="1" as="geometry" />
        </mxCell>
        <mxCell id="io9VJMqO0ZMELUNDM5LC-94" style="edgeStyle=orthogonalEdgeStyle;rounded=0;orthogonalLoop=1;jettySize=auto;html=1;entryX=0.102;entryY=-0.023;entryDx=0;entryDy=0;entryPerimeter=0;" edge="1" parent="WIyWlLk6GJQsqaUBKTNV-1" source="io9VJMqO0ZMELUNDM5LC-23" target="io9VJMqO0ZMELUNDM5LC-38">
          <mxGeometry relative="1" as="geometry">
            <Array as="points">
              <mxPoint x="235" y="650" />
              <mxPoint x="180" y="650" />
            </Array>
          </mxGeometry>
        </mxCell>
      </root>
    </mxGraphModel>
  </diagram>
</mxfile>
